<?xml version="1.0" standalone="no"?>
<!DOCTYPE svg PUBLIC "-//W3C//DTD SVG 20010904//EN"
 "http://www.w3.org/TR/2001/REC-SVG-20010904/DTD/svg10.dtd">
<svg version="1.0" xmlns="http://www.w3.org/2000/svg"
 width="256.000000pt" height="256.000000pt" viewBox="0 0 256.000000 256.000000"
 preserveAspectRatio="xMidYMid meet">
<metadata>
Created by potrace 1.11, written by Peter Selinger 2001-2013
</metadata>
<g transform="translate(0.000000,256.000000) scale(0.100000,-0.100000)"
fill="#000000" stroke="none">
<path d="M1170 2314 c-166 -33 -331 -139 -429 -274 l-31 -43 0 151 0 152 -65
0 c-55 0 -65 -3 -66 -17 -3 -53 -4 -2072 -1 -2091 4 -20 10 -22 73 -22 l69 0
1 38 c0 20 0 232 0 471 l0 433 22 -29 c58 -79 98 -121 164 -174 134 -106 256
-149 420 -144 117 3 175 16 268 62 195 96 333 277 385 510 85 376 -83 755
-406 916 -129 65 -273 87 -404 61z m264 -153 c79 -27 185 -101 250 -172 158
-176 211 -437 135 -670 -34 -106 -80 -179 -159 -260 -118 -120 -239 -170 -401
-164 -192 6 -386 133 -501 328 l-36 62 -1 255 c0 164 4 269 11 295 45 155 274
329 465 353 73 9 164 -1 237 -27z"/>
</g>
</svg>
